<svg width="553" height="457" viewBox="0 0 553 457" fill="none" xmlns="http://www.w3.org/2000/svg">
<circle cx="326" cy="50" r="50" fill="#FFD966"/>
<path d="M302.585 55V41.9091H304.17V47.7386H311.151V41.9091H312.736V55H311.151V49.1449H304.17V55H302.585ZM315.194 43.3153V41.9091H325.012V43.3153H320.895V55H319.31V43.3153H315.194ZM327.458 41.9091H329.35L333.799 52.7756H333.953L338.401 41.9091H340.294V55H338.811V45.054H338.683L334.592 55H333.16L329.069 45.054H328.941V55H327.458V41.9091ZM343.472 55V41.9091H345.057V53.5938H351.142V55H343.472Z" fill="#4B4942"/>
<circle cx="175" cy="215" r="50" fill="#FFD966"/>
<path d="M151.585 220V206.909H153.17V212.739H160.151V206.909H161.736V220H160.151V214.145H153.17V220H151.585ZM164.909 220V206.909H172.81V208.315H166.495V212.739H172.401V214.145H166.495V218.594H172.912V220H164.909ZM176.204 220H174.542L179.349 206.909H180.985L185.792 220H184.13L180.218 208.98H180.116L176.204 220ZM176.818 214.886H183.517V216.293H176.818V214.886ZM191.871 220H187.831V206.909H192.05C193.32 206.909 194.407 207.171 195.31 207.695C196.213 208.215 196.906 208.963 197.387 209.939C197.869 210.911 198.11 212.074 198.11 213.429C198.11 214.793 197.867 215.967 197.381 216.951C196.895 217.931 196.188 218.685 195.259 219.214C194.33 219.738 193.201 220 191.871 220ZM189.417 218.594H191.769C192.851 218.594 193.748 218.385 194.46 217.967C195.172 217.55 195.702 216.955 196.051 216.184C196.401 215.413 196.576 214.494 196.576 213.429C196.576 212.372 196.403 211.462 196.058 210.7C195.713 209.933 195.197 209.344 194.511 208.935C193.825 208.522 192.971 208.315 191.948 208.315H189.417V218.594Z" fill="#4B4942"/>
<circle cx="503" cy="215" r="50" fill="#FFD966"/>
<path d="M479.585 220V206.909H484.162C485.074 206.909 485.826 207.067 486.418 207.382C487.011 207.693 487.452 208.113 487.741 208.641C488.031 209.165 488.176 209.747 488.176 210.386C488.176 210.949 488.076 211.413 487.876 211.78C487.68 212.146 487.42 212.436 487.096 212.649C486.776 212.862 486.429 213.02 486.054 213.122V213.25C486.455 213.276 486.857 213.416 487.262 213.672C487.667 213.928 488.006 214.294 488.278 214.771C488.551 215.249 488.688 215.832 488.688 216.523C488.688 217.179 488.538 217.769 488.24 218.293C487.942 218.817 487.471 219.233 486.827 219.54C486.184 219.847 485.347 220 484.315 220H479.585ZM481.17 218.594H484.315C485.351 218.594 486.086 218.393 486.521 217.993C486.96 217.588 487.179 217.098 487.179 216.523C487.179 216.08 487.066 215.67 486.84 215.295C486.614 214.916 486.293 214.614 485.875 214.388C485.457 214.158 484.963 214.043 484.392 214.043H481.17V218.594ZM481.17 212.662H484.111C484.588 212.662 485.018 212.568 485.402 212.381C485.79 212.193 486.097 211.929 486.322 211.588C486.553 211.247 486.668 210.847 486.668 210.386C486.668 209.811 486.467 209.323 486.067 208.923C485.666 208.518 485.031 208.315 484.162 208.315H481.17V212.662ZM502.338 213.455C502.338 214.835 502.088 216.028 501.59 217.034C501.091 218.04 500.407 218.815 499.538 219.361C498.669 219.906 497.676 220.179 496.559 220.179C495.443 220.179 494.45 219.906 493.581 219.361C492.711 218.815 492.027 218.04 491.529 217.034C491.03 216.028 490.781 214.835 490.781 213.455C490.781 212.074 491.03 210.881 491.529 209.875C492.027 208.869 492.711 208.094 493.581 207.548C494.45 207.003 495.443 206.73 496.559 206.73C497.676 206.73 498.669 207.003 499.538 207.548C500.407 208.094 501.091 208.869 501.59 209.875C502.088 210.881 502.338 212.074 502.338 213.455ZM500.804 213.455C500.804 212.321 500.614 211.364 500.235 210.585C499.86 209.805 499.35 209.214 498.707 208.814C498.068 208.413 497.352 208.213 496.559 208.213C495.767 208.213 495.049 208.413 494.405 208.814C493.766 209.214 493.257 209.805 492.877 210.585C492.502 211.364 492.315 212.321 492.315 213.455C492.315 214.588 492.502 215.545 492.877 216.325C493.257 217.104 493.766 217.695 494.405 218.095C495.049 218.496 495.767 218.696 496.559 218.696C497.352 218.696 498.068 218.496 498.707 218.095C499.35 217.695 499.86 217.104 500.235 216.325C500.614 215.545 500.804 214.588 500.804 213.455ZM509.043 220H505.003V206.909H509.222C510.492 206.909 511.578 207.171 512.482 207.695C513.385 208.215 514.078 208.963 514.559 209.939C515.041 210.911 515.282 212.074 515.282 213.429C515.282 214.793 515.039 215.967 514.553 216.951C514.067 217.931 513.36 218.685 512.431 219.214C511.502 219.738 510.373 220 509.043 220ZM506.588 218.594H508.941C510.023 218.594 510.92 218.385 511.632 217.967C512.343 217.55 512.874 216.955 513.223 216.184C513.573 215.413 513.748 214.494 513.748 213.429C513.748 212.372 513.575 211.462 513.23 210.7C512.885 209.933 512.369 209.344 511.683 208.935C510.997 208.522 510.142 208.315 509.12 208.315H506.588V218.594ZM516.2 206.909H518.016L521.646 213.02H521.8L525.431 206.909H527.246L522.516 214.605V220H520.931V214.605L516.2 206.909Z" fill="#4B4942"/>
<circle cx="50" cy="407" r="50" fill="#FFD966"/>
<path d="M26.5852 398.909H28.4773L32.9261 409.776H33.0795L37.5284 398.909H39.4205V412H37.9375V402.054H37.8097L33.7188 412H32.2869L28.196 402.054H28.0682V412H26.5852V398.909ZM42.5989 412V398.909H50.4995V400.315H44.1841V404.739H50.0904V406.145H44.1841V410.594H50.6017V412H42.5989ZM52.6408 400.315V398.909H62.459V400.315H58.3425V412H56.7573V400.315H52.6408ZM63.9132 412H62.2512L67.0581 398.909H68.6944L73.5012 412H71.8393L67.9274 400.98H67.8251L63.9132 412ZM64.5268 406.886H71.2257V408.293H64.5268V406.886Z" fill="#4B4942"/>
<circle cx="175" cy="407" r="50" fill="#FFD966"/>
<path d="M151.585 398.909H153.477L157.926 409.776H158.08L162.528 398.909H164.42V412H162.938V402.054H162.81L158.719 412H157.287L153.196 402.054H153.068V412H151.585V398.909ZM167.599 412V398.909H175.499V400.315H169.184V404.739H175.09V406.145H169.184V410.594H175.602V412H167.599ZM177.641 400.315V398.909H187.459V400.315H183.343V412H181.757V400.315H177.641ZM188.913 412H187.251L192.058 398.909H193.694L198.501 412H196.839L192.927 400.98H192.825L188.913 412ZM189.527 406.886H196.226V408.293H189.527V406.886Z" fill="#4B4942"/>
<circle cx="303" cy="407" r="50" fill="#FFD966"/>
<path d="M278.869 400.315V398.909H288.688V400.315H284.571V412H282.986V400.315H278.869ZM292.719 398.909V412H291.134V398.909H292.719ZM295.182 400.315V398.909H305V400.315H300.884V412H299.298V400.315H295.182ZM307.447 412V398.909H309.032V410.594H315.117V412H307.447ZM317.572 412V398.909H325.472V400.315H319.157V404.739H325.063V406.145H319.157V410.594H325.574V412H317.572Z" fill="#4B4942"/>
<circle cx="503" cy="405" r="50" fill="#FFD966"/>
<path d="M493.585 412V398.909H495.17V404.739H502.151V398.909H503.736V412H502.151V406.145H495.17V412H493.585ZM511.282 398.909V412H509.696V400.571H509.62L506.424 402.693V401.082L509.696 398.909H511.282Z" fill="#4B4942"/>
<line x1="292.136" y1="83.9801" x2="210.136" y2="178.98" stroke="#EE5013" stroke-width="3"/>
<line x1="143.128" y1="252.989" x2="51.1282" y2="357.989" stroke="#EE5013" stroke-width="3"/>
<line x1="363.061" y1="81.9393" x2="465.061" y2="183.939" stroke="#EE5013" stroke-width="3"/>
<line x1="176.5" y1="265" x2="176.5" y2="357" stroke="#EE5013" stroke-width="3"/>
<line x1="216.19" y1="244.086" x2="302.19" y2="356.086" stroke="#EE5013" stroke-width="3"/>
<line x1="504.5" y1="265" x2="504.5" y2="357" stroke="#EE5013" stroke-width="3"/>
</svg>
